<?xml version="1.0" encoding="UTF-8" standalone="no"?>
<!-- Created with Inkscape (http://www.inkscape.org/) -->

<svg
   width="250.00002"
   height="231.61392"
   viewBox="0 0 66.145835 61.281184"
   version="1.1"
   id="svg1"
   inkscape:version="1.4.3 (0d15f75042, 2025-12-25)"
   sodipodi:docname="character1_source.svg"
   inkscape:export-filename="../character1.svg"
   inkscape:export-xdpi="96"
   inkscape:export-ydpi="96"
   xmlns:inkscape="http://www.inkscape.org/namespaces/inkscape"
   xmlns:sodipodi="http://sodipodi.sourceforge.net/DTD/sodipodi-0.dtd"
   xmlns="http://www.w3.org/2000/svg"
   xmlns:svg="http://www.w3.org/2000/svg">
  <sodipodi:namedview
     id="namedview1"
     pagecolor="#ffffff"
     bordercolor="#000000"
     borderopacity="0.25"
     inkscape:showpageshadow="2"
     inkscape:pageopacity="0.0"
     inkscape:pagecheckerboard="0"
     inkscape:deskcolor="#d1d1d1"
     inkscape:document-units="px"
     showguides="true"
     inkscape:zoom="3.3516861"
     inkscape:cx="124.41499"
     inkscape:cy="151.41633"
     inkscape:window-width="2560"
     inkscape:window-height="1408"
     inkscape:window-x="0"
     inkscape:window-y="0"
     inkscape:window-maximized="1"
     inkscape:current-layer="layer1">
    <sodipodi:guide
       position="0,63.633973"
       orientation="1,0"
       id="guide1"
       inkscape:locked="false" />
    <sodipodi:guide
       position="0,63.633973"
       orientation="0,-1"
       id="guide2"
       inkscape:locked="false" />
    <sodipodi:guide
       position="66.145835,-2.5118672"
       orientation="0,-1"
       id="guide3"
       inkscape:locked="false" />
    <sodipodi:guide
       position="66.145835,-2.5118572"
       orientation="1,0"
       id="guide4"
       inkscape:locked="false" />
    <inkscape:page
       x="0"
       y="0"
       width="66.145836"
       height="61.281185"
       id="page2"
       margin="0"
       bleed="0" />
  </sodipodi:namedview>
  <defs
     id="defs1" />
  <g
     inkscape:label="Layer 1"
     inkscape:groupmode="layer"
     id="layer1"
     transform="translate(0,-2.3527801)">
    <rect
       style="fill:#999999;stroke-width:0.251404;stroke-linejoin:round"
       id="rect4"
       width="66.145836"
       height="26.458332"
       x="0"
       y="37.175632"
       ry="13.229166" />
    <rect
       style="fill:#5fd35f;fill-opacity:1;stroke-width:0.264583;stroke-linejoin:round"
       id="rect6"
       width="12.391869"
       height="33.93811"
       x="46.458805"
       y="12.08664"
       ry="6.1959386"
       inkscape:transform-center-y="-16.694358"
       transform="rotate(-10.323432)"
       inkscape:transform-center-x="3.0409331" />
    <rect
       style="fill:#2ca02c;fill-opacity:1;stroke-width:0.264583;stroke-linejoin:round"
       id="rect5"
       width="12.391877"
       height="27.128164"
       x="53.75396"
       y="28.5376"
       ry="6.1959386" />
    <path
       style="fill:#e6e6e6;fill-opacity:1;stroke-width:0.264583;stroke-linejoin:round"
       d="m 17.28794,36.865152 0.315762,-6.315231 2.447151,1.420926 v -4.973243 l 2.841853,2.05245 1.105165,-4.34172 2.13139,2.447152 1.105166,-4.025959 2.117786,2.859584 2.302873,-3.806868 1.417833,3.382983 2.213425,-3.461923 1.821494,3.96174 2.928925,-2.382933 0.842282,3.841547 2.538156,-1.868038 0.376862,3.855932 2.859693,-0.895771 -0.559929,3.292258 2.296617,-0.974868 0.262774,6.242463 z"
       id="path10" />
    <circle
       style="fill:#5fd35f;fill-opacity:1;stroke-width:0.446554;stroke-linejoin:round"
       id="path4"
       cx="33.072918"
       cy="42.101685"
       r="16.536459" />
    <rect
       style="fill:#5fd35f;fill-opacity:1;stroke-width:0.264583;stroke-linejoin:round"
       id="rect9"
       width="12.391869"
       height="33.93811"
       x="-18.402754"
       y="0.27189296"
       ry="6.1959386"
       inkscape:transform-center-y="-16.694358"
       transform="matrix(-0.98381183,-0.17920458,-0.17920458,0.98381183,0,0)"
       inkscape:transform-center-x="-3.0409342" />
    <rect
       style="fill:#2ca02c;fill-opacity:1;stroke-width:0.264583;stroke-linejoin:round"
       id="rect8"
       width="12.391877"
       height="27.128164"
       x="-12.391877"
       y="28.537603"
       ry="6.1959386"
       transform="scale(-1,1)" />
    <path
       id="circle9"
       style="fill:#ffccaa;stroke-width:0.446554;stroke-linejoin:round"
       d="m 49.609377,42.101685 c 0,9.132834 -7.403625,16.536459 -16.536459,16.536459 -9.132834,0 -16.536459,-7.403625 -16.536459,-16.536459 0,-9.132834 7.403625,-11.168514 16.536459,-11.168514 9.132834,0 16.536459,2.03568 16.536459,11.168514 z"
       sodipodi:nodetypes="sssss" />
    <path
       id="path9"
       style="fill:#d45500;stroke-width:0.264583;stroke-linejoin:round"
       d="m 18.37328,34.632483 a 16.536459,16.536459 0 0 0 -7.60602,0.777546 3.9215791,2.7462177 0 0 0 -0.006,0.151693 3.9215791,2.7462177 0 0 0 3.921885,2.746174 3.9215791,2.7462177 0 0 0 3.921571,-2.746138 3.9215791,2.7462177 0 0 0 -0.231395,-0.929275 z"
       transform="rotate(-20.530682)" />
    <path
       id="ellipse9"
       style="fill:#d45500;stroke-width:0.264583;stroke-linejoin:round"
       d="m -43.802264,11.405983 a 3.9215791,2.7462177 0 0 1 0.277642,1.015019 3.9215791,2.7462177 0 0 1 -3.921571,2.746138 3.9215791,2.7462177 0 0 1 -3.921402,-2.745993 3.9215791,2.7462177 0 0 1 0.0056,-0.143044 16.536459,16.536459 0 0 1 7.559769,-0.87212 z"
       transform="matrix(-0.93648452,-0.35070892,-0.35070892,0.93648452,0,0)" />
  </g>
</svg>
