<?xml version="1.0" encoding="UTF-8" standalone="no"?>
<!-- Created with Inkscape (http://www.inkscape.org/) -->

<svg
   width="2000.0001"
   height="251.14209"
   viewBox="0 0 529.16668 66.448012"
   version="1.1"
   id="svg1"
   inkscape:version="1.4.3 (0d15f75042, 2025-12-25)"
   sodipodi:docname="character3_sprite.svg"
   inkscape:export-filename="../character2_sprite.svg"
   inkscape:export-xdpi="96"
   inkscape:export-ydpi="96"
   xml:space="preserve"
   xmlns:inkscape="http://www.inkscape.org/namespaces/inkscape"
   xmlns:sodipodi="http://sodipodi.sourceforge.net/DTD/sodipodi-0.dtd"
   xmlns="http://www.w3.org/2000/svg"
   xmlns:svg="http://www.w3.org/2000/svg"><sodipodi:namedview
     id="namedview1"
     pagecolor="#ffffff"
     bordercolor="#000000"
     borderopacity="0.25"
     inkscape:showpageshadow="2"
     inkscape:pageopacity="0.0"
     inkscape:pagecheckerboard="0"
     inkscape:deskcolor="#d1d1d1"
     inkscape:document-units="px"
     showguides="true"
     inkscape:zoom="1.185"
     inkscape:cx="444.72574"
     inkscape:cy="181.85654"
     inkscape:window-width="2560"
     inkscape:window-height="1408"
     inkscape:window-x="0"
     inkscape:window-y="0"
     inkscape:window-maximized="1"
     inkscape:current-layer="layer2"
     showgrid="false"><sodipodi:guide
       position="0,66.44801"
       orientation="1,0"
       id="guide1"
       inkscape:locked="false" /><sodipodi:guide
       position="0,66.44801"
       orientation="0,-1"
       id="guide2"
       inkscape:locked="false" /><sodipodi:guide
       position="66.145835,0.30217043"
       orientation="0,-1"
       id="guide3"
       inkscape:locked="false" /><sodipodi:guide
       position="66.145835,0.30218043"
       orientation="-1,0"
       id="guide4"
       inkscape:locked="false"
       inkscape:label=""
       inkscape:color="rgb(0,134,229)" /><sodipodi:guide
       position="132.29166,29.27238"
       orientation="-1,0"
       id="guide5"
       inkscape:locked="false"
       inkscape:label=""
       inkscape:color="rgb(0,134,229)" /><sodipodi:guide
       position="264.58333,11.07599"
       orientation="1,0"
       id="guide7"
       inkscape:locked="false" /><sodipodi:guide
       position="330.72916,24.83544"
       orientation="1,0"
       id="guide8"
       inkscape:locked="false" /><sodipodi:guide
       position="396.875,24.83544"
       orientation="1,0"
       id="guide9"
       inkscape:locked="false" /><sodipodi:guide
       position="463.02084,24.71264"
       orientation="1,0"
       id="guide10"
       inkscape:locked="false" /><sodipodi:guide
       position="198.4375,-14.38693"
       orientation="-1,0"
       id="guide18"
       inkscape:locked="false"
       inkscape:label=""
       inkscape:color="rgb(0,134,229)" /><sodipodi:guide
       position="33.072917,53.73379"
       orientation="0,-1"
       id="guide19"
       inkscape:locked="false" /><inkscape:page
       x="0"
       y="0"
       width="529.16669"
       height="66.448013"
       id="page2"
       margin="0"
       bleed="0" /></sodipodi:namedview><defs
     id="defs1" /><g
     inkscape:groupmode="layer"
     id="layer2"
     inkscape:label="Zombie"
     transform="matrix(0.5,0,0,0.5,50.270833,24.341665)"><rect
       style="fill:none;stroke-width:0.132292;stroke-linecap:round;stroke-linejoin:round"
       id="rect121"
       width="132.29167"
       height="132.29169"
       x="-100.54167"
       y="-48.683331" /><g
       id="g121"
       inkscape:label="zombie"
       transform="translate(-134.9375,-31.220817)"><rect
         style="fill:#999999;stroke-width:0.251404;stroke-linejoin:round"
         id="rect4-9"
         width="66.145836"
         height="26.458332"
         x="0"
         y="37.175632"
         ry="13.229166"
         transform="translate(67.468747,15.68996)"
         inkscape:label="torso" /><g
         id="g120"
         inkscape:label="right_arm"><rect
           style="fill:#5fd35f;fill-opacity:1;stroke-width:0.264583;stroke-linejoin:round"
           id="rect6-1"
           width="12.391869"
           height="33.93811"
           x="46.458805"
           y="12.08664"
           ry="6.1959386"
           inkscape:transform-center-y="-16.694358"
           transform="rotate(-10.323432,120.57903,-365.59777)"
           inkscape:transform-center-x="3.0409331" /><rect
           style="fill:#2ca02c;fill-opacity:1;stroke-width:0.264583;stroke-linejoin:round"
           id="rect5-2"
           width="12.391877"
           height="27.128164"
           x="53.75396"
           y="28.5376"
           ry="6.1959386"
           transform="translate(67.468747,15.68996)" /></g><g
         id="g119"
         inkscape:label="left_arm"><rect
           style="fill:#5fd35f;fill-opacity:1;stroke-width:0.264583;stroke-linejoin:round"
           id="rect9-9"
           width="12.391869"
           height="33.93811"
           x="-18.402754"
           y="0.27189296"
           ry="6.1959386"
           inkscape:transform-center-y="-16.694358"
           transform="matrix(-0.98381184,-0.17920458,-0.17920458,0.98381184,67.468747,15.68996)"
           inkscape:transform-center-x="-3.0409342" /><rect
           style="fill:#2ca02c;fill-opacity:1;stroke-width:0.264583;stroke-linejoin:round"
           id="rect8-3"
           width="12.391877"
           height="27.128164"
           x="-12.391877"
           y="28.537603"
           ry="6.1959386"
           transform="matrix(-1,0,0,1,67.468747,15.68996)" /></g><g
         id="g118"
         inkscape:label="head"><path
           style="fill:#e6e6e6;fill-opacity:1;stroke-width:0.264583;stroke-linejoin:round"
           d="m 17.28794,36.865152 0.315762,-6.315231 2.447151,1.420926 v -4.973243 l 2.841853,2.05245 1.105165,-4.34172 2.13139,2.447152 1.105166,-4.025959 2.117786,2.859584 2.302873,-3.806868 1.417833,3.382983 2.213425,-3.461923 1.821494,3.96174 2.928925,-2.382933 0.842282,3.841547 2.538156,-1.868038 0.376862,3.855932 2.859693,-0.895771 -0.559929,3.292258 2.296617,-0.974868 0.262774,6.242463 z"
           id="path10-7"
           transform="translate(67.468747,15.68996)"
           inkscape:label="teeth" /><circle
           style="fill:#5fd35f;fill-opacity:1;stroke-width:0.446554;stroke-linejoin:round"
           id="path4-0"
           cx="33.072918"
           cy="42.101685"
           r="16.536459"
           transform="translate(67.468747,15.68996)" /><path
           id="circle9-6"
           style="fill:#ffccaa;stroke-width:0.446554;stroke-linejoin:round"
           d="m 49.609377,42.101685 c 0,9.132834 -7.403625,16.536459 -16.536459,16.536459 -9.132834,0 -16.536459,-7.403625 -16.536459,-16.536459 0,-9.132834 7.403625,-11.168514 16.536459,-11.168514 9.132834,0 16.536459,2.03568 16.536459,11.168514 z"
           sodipodi:nodetypes="sssss"
           transform="translate(67.468747,15.68996)" /><g
           id="g117"
           inkscape:label="eyes"><path
             id="path9"
             style="fill:#d45500;stroke-width:0.264583;stroke-linejoin:round"
             d="m 18.37328,34.632483 a 16.536459,16.536459 0 0 0 -7.60602,0.777546 3.9215791,2.7462177 0 0 0 -0.006,0.151693 3.9215791,2.7462177 0 0 0 3.921885,2.746174 3.9215791,2.7462177 0 0 0 3.921571,-2.746138 3.9215791,2.7462177 0 0 0 -0.231395,-0.929275 z"
             transform="rotate(-20.530681,77.051444,-178.42372)" /><path
             id="ellipse9"
             style="fill:#d45500;stroke-width:0.264583;stroke-linejoin:round"
             d="m -43.802264,11.405983 a 3.9215791,2.7462177 0 0 1 0.277642,1.015019 3.9215791,2.7462177 0 0 1 -3.921571,2.746138 3.9215791,2.7462177 0 0 1 -3.921402,-2.745993 3.9215791,2.7462177 0 0 1 0.0056,-0.143044 16.536459,16.536459 0 0 1 7.559769,-0.87212 z"
             transform="matrix(-0.93648452,-0.35070891,-0.35070891,0.93648452,67.468747,15.68996)" /></g></g></g><rect
       style="fill:none;stroke-width:0.132292;stroke-linecap:round;stroke-linejoin:round"
       id="rect122"
       width="132.29167"
       height="132.29169"
       x="31.75"
       y="-48.683331" /><g
       id="g132"
       inkscape:label="zombie"
       transform="translate(-2.6458286,-31.220816)"><rect
         style="fill:#999999;stroke-width:0.251404;stroke-linejoin:round"
         id="rect123"
         width="66.145836"
         height="26.458332"
         x="0"
         y="37.175632"
         ry="13.229166"
         transform="translate(67.468747,15.68996)"
         inkscape:label="torso" /><g
         id="g125"
         inkscape:label="right_arm"><rect
           style="fill:#5fd35f;fill-opacity:1;stroke-width:0.264583;stroke-linejoin:round"
           id="rect124"
           width="12.391869"
           height="33.93811"
           x="46.458805"
           y="12.08664"
           ry="6.1959386"
           inkscape:transform-center-y="-16.694358"
           transform="rotate(-10.323432,120.57903,-365.59777)"
           inkscape:transform-center-x="3.0409331" /><rect
           style="fill:#2ca02c;fill-opacity:1;stroke-width:0.264583;stroke-linejoin:round"
           id="rect125"
           width="12.391877"
           height="27.128164"
           x="53.75396"
           y="28.5376"
           ry="6.1959386"
           transform="translate(67.468747,15.68996)" /></g><g
         id="g127"
         inkscape:label="left_arm"><rect
           style="fill:#5fd35f;fill-opacity:1;stroke-width:0.264583;stroke-linejoin:round"
           id="rect126"
           width="12.391869"
           height="33.93811"
           x="-18.402754"
           y="0.27189296"
           ry="6.1959386"
           inkscape:transform-center-y="-16.694358"
           transform="matrix(-0.98381184,-0.17920458,-0.17920458,0.98381184,67.468747,15.68996)"
           inkscape:transform-center-x="-3.0409342" /><rect
           style="fill:#2ca02c;fill-opacity:1;stroke-width:0.264583;stroke-linejoin:round"
           id="rect127"
           width="12.391877"
           height="27.128164"
           x="-12.391877"
           y="28.537603"
           ry="6.1959386"
           transform="matrix(-1,0,0,1,67.468747,15.68996)" /></g><g
         id="g131"
         inkscape:label="head"><path
           style="fill:#e6e6e6;fill-opacity:1;stroke-width:0.264583;stroke-linejoin:round"
           d="m 17.28794,36.865152 0.315762,-6.315231 2.447151,1.420926 v -4.973243 l 2.841853,2.05245 1.105165,-4.34172 2.13139,2.447152 1.105166,-4.025959 2.117786,2.859584 2.302873,-3.806868 1.417833,3.382983 2.213425,-3.461923 1.821494,3.96174 2.928925,-2.382933 0.842282,3.841547 2.538156,-1.868038 0.376862,3.855932 2.859693,-0.895771 -0.559929,3.292258 2.296617,-0.974868 0.262774,6.242463 z"
           id="path127"
           transform="translate(67.468747,15.68996)"
           inkscape:label="teeth" /><circle
           style="fill:#5fd35f;fill-opacity:1;stroke-width:0.446554;stroke-linejoin:round"
           id="circle127"
           cx="33.072918"
           cy="42.101685"
           r="16.536459"
           transform="translate(67.468747,15.68996)" /><path
           id="path128"
           style="fill:#ffccaa;stroke-width:0.446554;stroke-linejoin:round"
           d="m 49.609377,42.101685 c 0,9.132834 -7.403625,16.536459 -16.536459,16.536459 -9.132834,0 -16.536459,-7.403625 -16.536459,-16.536459 0,-9.132834 7.403625,-11.168514 16.536459,-11.168514 9.132834,0 16.536459,2.03568 16.536459,11.168514 z"
           sodipodi:nodetypes="sssss"
           transform="translate(67.468747,15.68996)" /><g
           id="g130"
           inkscape:label="eyes"><path
             id="path129"
             style="fill:#d45500;stroke-width:0.264583;stroke-linejoin:round"
             d="m 18.37328,34.632483 a 16.536459,16.536459 0 0 0 -7.60602,0.777546 3.9215791,2.7462177 0 0 0 -0.006,0.151693 3.9215791,2.7462177 0 0 0 3.921885,2.746174 3.9215791,2.7462177 0 0 0 3.921571,-2.746138 3.9215791,2.7462177 0 0 0 -0.231395,-0.929275 z"
             transform="rotate(-20.530681,77.051444,-178.42372)" /><path
             id="path130"
             style="fill:#d45500;stroke-width:0.264583;stroke-linejoin:round"
             d="m -43.802264,11.405983 a 3.9215791,2.7462177 0 0 1 0.277642,1.015019 3.9215791,2.7462177 0 0 1 -3.921571,2.746138 3.9215791,2.7462177 0 0 1 -3.921402,-2.745993 3.9215791,2.7462177 0 0 1 0.0056,-0.143044 16.536459,16.536459 0 0 1 7.559769,-0.87212 z"
             transform="matrix(-0.93648452,-0.35070891,-0.35070891,0.93648452,67.468747,15.68996)" /></g></g></g><rect
       style="fill:none;stroke-width:0.132292;stroke-linecap:round;stroke-linejoin:round"
       id="rect132"
       width="132.29167"
       height="132.29169"
       x="164.04166"
       y="-48.683331" /><g
       id="g142"
       inkscape:label="zombie"
       transform="translate(129.64583,-31.220816)"><rect
         style="fill:#999999;stroke-width:0.251404;stroke-linejoin:round"
         id="rect133"
         width="66.145836"
         height="26.458332"
         x="0"
         y="37.175632"
         ry="13.229166"
         transform="translate(67.468747,15.68996)"
         inkscape:label="torso" /><g
         id="g135"
         inkscape:label="right_arm"><rect
           style="fill:#5fd35f;fill-opacity:1;stroke-width:0.264583;stroke-linejoin:round"
           id="rect134"
           width="12.391869"
           height="33.93811"
           x="46.458805"
           y="12.08664"
           ry="6.1959386"
           inkscape:transform-center-y="-16.694358"
           transform="rotate(-10.323432,120.57903,-365.59777)"
           inkscape:transform-center-x="3.0409331" /><rect
           style="fill:#2ca02c;fill-opacity:1;stroke-width:0.264583;stroke-linejoin:round"
           id="rect135"
           width="12.391877"
           height="27.128164"
           x="53.75396"
           y="28.5376"
           ry="6.1959386"
           transform="translate(67.468747,15.68996)" /></g><g
         id="g137"
         inkscape:label="left_arm"><rect
           style="fill:#5fd35f;fill-opacity:1;stroke-width:0.264583;stroke-linejoin:round"
           id="rect136"
           width="12.391869"
           height="33.93811"
           x="-18.402754"
           y="0.27189296"
           ry="6.1959386"
           inkscape:transform-center-y="-16.694358"
           transform="matrix(-0.98381184,-0.17920458,-0.17920458,0.98381184,67.468747,15.68996)"
           inkscape:transform-center-x="-3.0409342" /><rect
           style="fill:#2ca02c;fill-opacity:1;stroke-width:0.264583;stroke-linejoin:round"
           id="rect137"
           width="12.391877"
           height="27.128164"
           x="-12.391877"
           y="28.537603"
           ry="6.1959386"
           transform="matrix(-1,0,0,1,67.468747,15.68996)" /></g><g
         id="g141"
         inkscape:label="head"><path
           style="fill:#e6e6e6;fill-opacity:1;stroke-width:0.264583;stroke-linejoin:round"
           d="m 17.28794,36.865152 0.315762,-6.315231 2.447151,1.420926 v -4.973243 l 2.841853,2.05245 1.105165,-4.34172 2.13139,2.447152 1.105166,-4.025959 2.117786,2.859584 2.302873,-3.806868 1.417833,3.382983 2.213425,-3.461923 1.821494,3.96174 2.928925,-2.382933 0.842282,3.841547 2.538156,-1.868038 0.376862,3.855932 2.859693,-0.895771 -0.559929,3.292258 2.296617,-0.974868 0.262774,6.242463 z"
           id="path137"
           transform="translate(67.468747,15.68996)"
           inkscape:label="teeth" /><circle
           style="fill:#5fd35f;fill-opacity:1;stroke-width:0.446554;stroke-linejoin:round"
           id="circle137"
           cx="33.072918"
           cy="42.101685"
           r="16.536459"
           transform="translate(67.468747,15.68996)" /><path
           id="path138"
           style="fill:#ffccaa;stroke-width:0.446554;stroke-linejoin:round"
           d="m 49.609377,42.101685 c 0,9.132834 -7.403625,16.536459 -16.536459,16.536459 -9.132834,0 -16.536459,-7.403625 -16.536459,-16.536459 0,-9.132834 7.403625,-11.168514 16.536459,-11.168514 9.132834,0 16.536459,2.03568 16.536459,11.168514 z"
           sodipodi:nodetypes="sssss"
           transform="translate(67.468747,15.68996)" /><g
           id="g140"
           inkscape:label="eyes"><path
             id="path139"
             style="fill:#d45500;stroke-width:0.264583;stroke-linejoin:round"
             d="m 18.37328,34.632483 a 16.536459,16.536459 0 0 0 -7.60602,0.777546 3.9215791,2.7462177 0 0 0 -0.006,0.151693 3.9215791,2.7462177 0 0 0 3.921885,2.746174 3.9215791,2.7462177 0 0 0 3.921571,-2.746138 3.9215791,2.7462177 0 0 0 -0.231395,-0.929275 z"
             transform="rotate(-20.530681,77.051444,-178.42372)" /><path
             id="path140"
             style="fill:#d45500;stroke-width:0.264583;stroke-linejoin:round"
             d="m -43.802264,11.405983 a 3.9215791,2.7462177 0 0 1 0.277642,1.015019 3.9215791,2.7462177 0 0 1 -3.921571,2.746138 3.9215791,2.7462177 0 0 1 -3.921402,-2.745993 3.9215791,2.7462177 0 0 1 0.0056,-0.143044 16.536459,16.536459 0 0 1 7.559769,-0.87212 z"
             transform="matrix(-0.93648452,-0.35070891,-0.35070891,0.93648452,67.468747,15.68996)" /></g></g></g><rect
       style="fill:none;stroke-width:0.132292;stroke-linecap:round;stroke-linejoin:round"
       id="rect142"
       width="132.29167"
       height="132.29169"
       x="296.33331"
       y="-48.683331" /><g
       id="g152"
       inkscape:label="zombie"
       transform="translate(261.93751,-31.220813)"><rect
         style="fill:#999999;stroke-width:0.251404;stroke-linejoin:round"
         id="rect143"
         width="66.145836"
         height="26.458332"
         x="0"
         y="37.175632"
         ry="13.229166"
         transform="translate(67.468747,15.68996)"
         inkscape:label="torso" /><g
         id="g145"
         inkscape:label="right_arm"><rect
           style="fill:#5fd35f;fill-opacity:1;stroke-width:0.264583;stroke-linejoin:round"
           id="rect144"
           width="12.391869"
           height="33.93811"
           x="46.458805"
           y="12.08664"
           ry="6.1959386"
           inkscape:transform-center-y="-16.694358"
           transform="rotate(-10.323432,120.57903,-365.59777)"
           inkscape:transform-center-x="3.0409331" /><rect
           style="fill:#2ca02c;fill-opacity:1;stroke-width:0.264583;stroke-linejoin:round"
           id="rect145"
           width="12.391877"
           height="27.128164"
           x="53.75396"
           y="28.5376"
           ry="6.1959386"
           transform="translate(67.468747,15.68996)" /></g><g
         id="g147"
         inkscape:label="left_arm"><rect
           style="fill:#5fd35f;fill-opacity:1;stroke-width:0.264583;stroke-linejoin:round"
           id="rect146"
           width="12.391869"
           height="33.93811"
           x="-18.402754"
           y="0.27189296"
           ry="6.1959386"
           inkscape:transform-center-y="-16.694358"
           transform="matrix(-0.98381184,-0.17920458,-0.17920458,0.98381184,67.468747,15.68996)"
           inkscape:transform-center-x="-3.0409342" /><rect
           style="fill:#2ca02c;fill-opacity:1;stroke-width:0.264583;stroke-linejoin:round"
           id="rect147"
           width="12.391877"
           height="27.128164"
           x="-12.391877"
           y="28.537603"
           ry="6.1959386"
           transform="matrix(-1,0,0,1,67.468747,15.68996)" /></g><g
         id="g151"
         inkscape:label="head"><path
           style="fill:#e6e6e6;fill-opacity:1;stroke-width:0.264583;stroke-linejoin:round"
           d="m 17.28794,36.865152 0.315762,-6.315231 2.447151,1.420926 v -4.973243 l 2.841853,2.05245 1.105165,-4.34172 2.13139,2.447152 1.105166,-4.025959 2.117786,2.859584 2.302873,-3.806868 1.417833,3.382983 2.213425,-3.461923 1.821494,3.96174 2.928925,-2.382933 0.842282,3.841547 2.538156,-1.868038 0.376862,3.855932 2.859693,-0.895771 -0.559929,3.292258 2.296617,-0.974868 0.262774,6.242463 z"
           id="path147"
           transform="translate(67.468747,15.68996)"
           inkscape:label="teeth" /><circle
           style="fill:#5fd35f;fill-opacity:1;stroke-width:0.446554;stroke-linejoin:round"
           id="circle147"
           cx="33.072918"
           cy="42.101685"
           r="16.536459"
           transform="translate(67.468747,15.68996)" /><path
           id="path148"
           style="fill:#ffccaa;stroke-width:0.446554;stroke-linejoin:round"
           d="m 49.609377,42.101685 c 0,9.132834 -7.403625,16.536459 -16.536459,16.536459 -9.132834,0 -16.536459,-7.403625 -16.536459,-16.536459 0,-9.132834 7.403625,-11.168514 16.536459,-11.168514 9.132834,0 16.536459,2.03568 16.536459,11.168514 z"
           sodipodi:nodetypes="sssss"
           transform="translate(67.468747,15.68996)" /><g
           id="g150"
           inkscape:label="eyes"><path
             id="path149"
             style="fill:#d45500;stroke-width:0.264583;stroke-linejoin:round"
             d="m 18.37328,34.632483 a 16.536459,16.536459 0 0 0 -7.60602,0.777546 3.9215791,2.7462177 0 0 0 -0.006,0.151693 3.9215791,2.7462177 0 0 0 3.921885,2.746174 3.9215791,2.7462177 0 0 0 3.921571,-2.746138 3.9215791,2.7462177 0 0 0 -0.231395,-0.929275 z"
             transform="rotate(-20.530681,77.051444,-178.42372)" /><path
             id="path150"
             style="fill:#d45500;stroke-width:0.264583;stroke-linejoin:round"
             d="m -43.802264,11.405983 a 3.9215791,2.7462177 0 0 1 0.277642,1.015019 3.9215791,2.7462177 0 0 1 -3.921571,2.746138 3.9215791,2.7462177 0 0 1 -3.921402,-2.745993 3.9215791,2.7462177 0 0 1 0.0056,-0.143044 16.536459,16.536459 0 0 1 7.559769,-0.87212 z"
             transform="matrix(-0.93648452,-0.35070891,-0.35070891,0.93648452,67.468747,15.68996)" /></g></g></g><rect
       style="fill:none;stroke-width:0.132292;stroke-linecap:round;stroke-linejoin:round"
       id="rect152"
       width="132.29167"
       height="132.29169"
       x="428.625"
       y="-48.683331" /><g
       id="g162"
       inkscape:label="zombie"
       transform="translate(394.22919,-31.220812)"><rect
         style="fill:#999999;stroke-width:0.251404;stroke-linejoin:round"
         id="rect153"
         width="66.145836"
         height="26.458332"
         x="0"
         y="37.175632"
         ry="13.229166"
         transform="translate(67.468747,15.68996)"
         inkscape:label="torso" /><g
         id="g155"
         inkscape:label="right_arm"><rect
           style="fill:#5fd35f;fill-opacity:1;stroke-width:0.264583;stroke-linejoin:round"
           id="rect154"
           width="12.391869"
           height="33.93811"
           x="46.458805"
           y="12.08664"
           ry="6.1959386"
           inkscape:transform-center-y="-16.694358"
           transform="rotate(-10.323432,120.57903,-365.59777)"
           inkscape:transform-center-x="3.0409331" /><rect
           style="fill:#2ca02c;fill-opacity:1;stroke-width:0.264583;stroke-linejoin:round"
           id="rect155"
           width="12.391877"
           height="27.128164"
           x="53.75396"
           y="28.5376"
           ry="6.1959386"
           transform="translate(67.468747,15.68996)" /></g><g
         id="g157"
         inkscape:label="left_arm"><rect
           style="fill:#5fd35f;fill-opacity:1;stroke-width:0.264583;stroke-linejoin:round"
           id="rect156"
           width="12.391869"
           height="33.93811"
           x="-18.402754"
           y="0.27189296"
           ry="6.1959386"
           inkscape:transform-center-y="-16.694358"
           transform="matrix(-0.98381184,-0.17920458,-0.17920458,0.98381184,67.468747,15.68996)"
           inkscape:transform-center-x="-3.0409342" /><rect
           style="fill:#2ca02c;fill-opacity:1;stroke-width:0.264583;stroke-linejoin:round"
           id="rect157"
           width="12.391877"
           height="27.128164"
           x="-12.391877"
           y="28.537603"
           ry="6.1959386"
           transform="matrix(-1,0,0,1,67.468747,15.68996)" /></g><g
         id="g161"
         inkscape:label="head"><path
           style="fill:#e6e6e6;fill-opacity:1;stroke-width:0.264583;stroke-linejoin:round"
           d="m 17.28794,36.865152 0.315762,-6.315231 2.447151,1.420926 v -4.973243 l 2.841853,2.05245 1.105165,-4.34172 2.13139,2.447152 1.105166,-4.025959 2.117786,2.859584 2.302873,-3.806868 1.417833,3.382983 2.213425,-3.461923 1.821494,3.96174 2.928925,-2.382933 0.842282,3.841547 2.538156,-1.868038 0.376862,3.855932 2.859693,-0.895771 -0.559929,3.292258 2.296617,-0.974868 0.262774,6.242463 z"
           id="path157"
           transform="translate(67.468747,15.68996)"
           inkscape:label="teeth" /><circle
           style="fill:#5fd35f;fill-opacity:1;stroke-width:0.446554;stroke-linejoin:round"
           id="circle157"
           cx="33.072918"
           cy="42.101685"
           r="16.536459"
           transform="translate(67.468747,15.68996)" /><path
           id="path158"
           style="fill:#ffccaa;stroke-width:0.446554;stroke-linejoin:round"
           d="m 49.609377,42.101685 c 0,9.132834 -7.403625,16.536459 -16.536459,16.536459 -9.132834,0 -16.536459,-7.403625 -16.536459,-16.536459 0,-9.132834 7.403625,-11.168514 16.536459,-11.168514 9.132834,0 16.536459,2.03568 16.536459,11.168514 z"
           sodipodi:nodetypes="sssss"
           transform="translate(67.468747,15.68996)" /><g
           id="g160"
           inkscape:label="eyes"><path
             id="path159"
             style="fill:#d45500;stroke-width:0.264583;stroke-linejoin:round"
             d="m 18.37328,34.632483 a 16.536459,16.536459 0 0 0 -7.60602,0.777546 3.9215791,2.7462177 0 0 0 -0.006,0.151693 3.9215791,2.7462177 0 0 0 3.921885,2.746174 3.9215791,2.7462177 0 0 0 3.921571,-2.746138 3.9215791,2.7462177 0 0 0 -0.231395,-0.929275 z"
             transform="rotate(-20.530681,77.051444,-178.42372)" /><path
             id="path160"
             style="fill:#d45500;stroke-width:0.264583;stroke-linejoin:round"
             d="m -43.802264,11.405983 a 3.9215791,2.7462177 0 0 1 0.277642,1.015019 3.9215791,2.7462177 0 0 1 -3.921571,2.746138 3.9215791,2.7462177 0 0 1 -3.921402,-2.745993 3.9215791,2.7462177 0 0 1 0.0056,-0.143044 16.536459,16.536459 0 0 1 7.559769,-0.87212 z"
             transform="matrix(-0.93648452,-0.35070891,-0.35070891,0.93648452,67.468747,15.68996)" /></g></g></g><rect
       style="fill:none;stroke-width:0.132292;stroke-linecap:round;stroke-linejoin:round"
       id="rect162"
       width="132.29167"
       height="132.29169"
       x="560.91663"
       y="-48.683331" /><g
       id="g172"
       inkscape:label="zombie"
       transform="translate(526.52082,-31.220811)"><rect
         style="fill:#999999;stroke-width:0.251404;stroke-linejoin:round"
         id="rect163"
         width="66.145836"
         height="26.458332"
         x="0"
         y="37.175632"
         ry="13.229166"
         transform="translate(67.468747,15.68996)"
         inkscape:label="torso" /><g
         id="g165"
         inkscape:label="right_arm"><rect
           style="fill:#5fd35f;fill-opacity:1;stroke-width:0.264583;stroke-linejoin:round"
           id="rect164"
           width="12.391869"
           height="33.93811"
           x="46.458805"
           y="12.08664"
           ry="6.1959386"
           inkscape:transform-center-y="-16.694358"
           transform="rotate(-10.323432,120.57903,-365.59777)"
           inkscape:transform-center-x="3.0409331" /><rect
           style="fill:#2ca02c;fill-opacity:1;stroke-width:0.264583;stroke-linejoin:round"
           id="rect165"
           width="12.391877"
           height="27.128164"
           x="53.75396"
           y="28.5376"
           ry="6.1959386"
           transform="translate(67.468747,15.68996)" /></g><g
         id="g167"
         inkscape:label="left_arm"><rect
           style="fill:#5fd35f;fill-opacity:1;stroke-width:0.264583;stroke-linejoin:round"
           id="rect166"
           width="12.391869"
           height="33.93811"
           x="-18.402754"
           y="0.27189296"
           ry="6.1959386"
           inkscape:transform-center-y="-16.694358"
           transform="matrix(-0.98381184,-0.17920458,-0.17920458,0.98381184,67.468747,15.68996)"
           inkscape:transform-center-x="-3.0409342" /><rect
           style="fill:#2ca02c;fill-opacity:1;stroke-width:0.264583;stroke-linejoin:round"
           id="rect167"
           width="12.391877"
           height="27.128164"
           x="-12.391877"
           y="28.537603"
           ry="6.1959386"
           transform="matrix(-1,0,0,1,67.468747,15.68996)" /></g><g
         id="g171"
         inkscape:label="head"><path
           style="fill:#e6e6e6;fill-opacity:1;stroke-width:0.264583;stroke-linejoin:round"
           d="m 17.28794,36.865152 0.315762,-6.315231 2.447151,1.420926 v -4.973243 l 2.841853,2.05245 1.105165,-4.34172 2.13139,2.447152 1.105166,-4.025959 2.117786,2.859584 2.302873,-3.806868 1.417833,3.382983 2.213425,-3.461923 1.821494,3.96174 2.928925,-2.382933 0.842282,3.841547 2.538156,-1.868038 0.376862,3.855932 2.859693,-0.895771 -0.559929,3.292258 2.296617,-0.974868 0.262774,6.242463 z"
           id="path167"
           transform="translate(67.468747,15.68996)"
           inkscape:label="teeth" /><circle
           style="fill:#5fd35f;fill-opacity:1;stroke-width:0.446554;stroke-linejoin:round"
           id="circle167"
           cx="33.072918"
           cy="42.101685"
           r="16.536459"
           transform="translate(67.468747,15.68996)" /><path
           id="path168"
           style="fill:#ffccaa;stroke-width:0.446554;stroke-linejoin:round"
           d="m 49.609377,42.101685 c 0,9.132834 -7.403625,16.536459 -16.536459,16.536459 -9.132834,0 -16.536459,-7.403625 -16.536459,-16.536459 0,-9.132834 7.403625,-11.168514 16.536459,-11.168514 9.132834,0 16.536459,2.03568 16.536459,11.168514 z"
           sodipodi:nodetypes="sssss"
           transform="translate(67.468747,15.68996)" /><g
           id="g170"
           inkscape:label="eyes"><path
             id="path169"
             style="fill:#d45500;stroke-width:0.264583;stroke-linejoin:round"
             d="m 18.37328,34.632483 a 16.536459,16.536459 0 0 0 -7.60602,0.777546 3.9215791,2.7462177 0 0 0 -0.006,0.151693 3.9215791,2.7462177 0 0 0 3.921885,2.746174 3.9215791,2.7462177 0 0 0 3.921571,-2.746138 3.9215791,2.7462177 0 0 0 -0.231395,-0.929275 z"
             transform="rotate(-20.530681,77.051444,-178.42372)" /><path
             id="path170"
             style="fill:#d45500;stroke-width:0.264583;stroke-linejoin:round"
             d="m -43.802264,11.405983 a 3.9215791,2.7462177 0 0 1 0.277642,1.015019 3.9215791,2.7462177 0 0 1 -3.921571,2.746138 3.9215791,2.7462177 0 0 1 -3.921402,-2.745993 3.9215791,2.7462177 0 0 1 0.0056,-0.143044 16.536459,16.536459 0 0 1 7.559769,-0.87212 z"
             transform="matrix(-0.93648452,-0.35070891,-0.35070891,0.93648452,67.468747,15.68996)" /></g></g></g><rect
       style="fill:none;stroke-width:0.132292;stroke-linecap:round;stroke-linejoin:round"
       id="rect172"
       width="132.29167"
       height="132.29169"
       x="693.20831"
       y="-48.683331" /><g
       id="g182"
       inkscape:label="zombie"
       transform="translate(658.81254,-31.22081)"><rect
         style="fill:#999999;stroke-width:0.251404;stroke-linejoin:round"
         id="rect173"
         width="66.145836"
         height="26.458332"
         x="0"
         y="37.175632"
         ry="13.229166"
         transform="translate(67.468747,15.68996)"
         inkscape:label="torso" /><g
         id="g175"
         inkscape:label="right_arm"><rect
           style="fill:#5fd35f;fill-opacity:1;stroke-width:0.264583;stroke-linejoin:round"
           id="rect174"
           width="12.391869"
           height="33.93811"
           x="46.458805"
           y="12.08664"
           ry="6.1959386"
           inkscape:transform-center-y="-16.694358"
           transform="rotate(-10.323432,120.57903,-365.59777)"
           inkscape:transform-center-x="3.0409331" /><rect
           style="fill:#2ca02c;fill-opacity:1;stroke-width:0.264583;stroke-linejoin:round"
           id="rect175"
           width="12.391877"
           height="27.128164"
           x="53.75396"
           y="28.5376"
           ry="6.1959386"
           transform="translate(67.468747,15.68996)" /></g><g
         id="g177"
         inkscape:label="left_arm"><rect
           style="fill:#5fd35f;fill-opacity:1;stroke-width:0.264583;stroke-linejoin:round"
           id="rect176"
           width="12.391869"
           height="33.93811"
           x="-18.402754"
           y="0.27189296"
           ry="6.1959386"
           inkscape:transform-center-y="-16.694358"
           transform="matrix(-0.98381184,-0.17920458,-0.17920458,0.98381184,67.468747,15.68996)"
           inkscape:transform-center-x="-3.0409342" /><rect
           style="fill:#2ca02c;fill-opacity:1;stroke-width:0.264583;stroke-linejoin:round"
           id="rect177"
           width="12.391877"
           height="27.128164"
           x="-12.391877"
           y="28.537603"
           ry="6.1959386"
           transform="matrix(-1,0,0,1,67.468747,15.68996)" /></g><g
         id="g181"
         inkscape:label="head"><path
           style="fill:#e6e6e6;fill-opacity:1;stroke-width:0.264583;stroke-linejoin:round"
           d="m 17.28794,36.865152 0.315762,-6.315231 2.447151,1.420926 v -4.973243 l 2.841853,2.05245 1.105165,-4.34172 2.13139,2.447152 1.105166,-4.025959 2.117786,2.859584 2.302873,-3.806868 1.417833,3.382983 2.213425,-3.461923 1.821494,3.96174 2.928925,-2.382933 0.842282,3.841547 2.538156,-1.868038 0.376862,3.855932 2.859693,-0.895771 -0.559929,3.292258 2.296617,-0.974868 0.262774,6.242463 z"
           id="path177"
           transform="translate(67.468747,15.68996)"
           inkscape:label="teeth" /><circle
           style="fill:#5fd35f;fill-opacity:1;stroke-width:0.446554;stroke-linejoin:round"
           id="circle177"
           cx="33.072918"
           cy="42.101685"
           r="16.536459"
           transform="translate(67.468747,15.68996)" /><path
           id="path178"
           style="fill:#ffccaa;stroke-width:0.446554;stroke-linejoin:round"
           d="m 49.609377,42.101685 c 0,9.132834 -7.403625,16.536459 -16.536459,16.536459 -9.132834,0 -16.536459,-7.403625 -16.536459,-16.536459 0,-9.132834 7.403625,-11.168514 16.536459,-11.168514 9.132834,0 16.536459,2.03568 16.536459,11.168514 z"
           sodipodi:nodetypes="sssss"
           transform="translate(67.468747,15.68996)" /><g
           id="g180"
           inkscape:label="eyes"><path
             id="path179"
             style="fill:#d45500;stroke-width:0.264583;stroke-linejoin:round"
             d="m 18.37328,34.632483 a 16.536459,16.536459 0 0 0 -7.60602,0.777546 3.9215791,2.7462177 0 0 0 -0.006,0.151693 3.9215791,2.7462177 0 0 0 3.921885,2.746174 3.9215791,2.7462177 0 0 0 3.921571,-2.746138 3.9215791,2.7462177 0 0 0 -0.231395,-0.929275 z"
             transform="rotate(-20.530681,77.051444,-178.42372)" /><path
             id="path180"
             style="fill:#d45500;stroke-width:0.264583;stroke-linejoin:round"
             d="m -43.802264,11.405983 a 3.9215791,2.7462177 0 0 1 0.277642,1.015019 3.9215791,2.7462177 0 0 1 -3.921571,2.746138 3.9215791,2.7462177 0 0 1 -3.921402,-2.745993 3.9215791,2.7462177 0 0 1 0.0056,-0.143044 16.536459,16.536459 0 0 1 7.559769,-0.87212 z"
             transform="matrix(-0.93648452,-0.35070891,-0.35070891,0.93648452,67.468747,15.68996)" /></g></g></g><rect
       style="fill:none;stroke-width:0.132292;stroke-linecap:round;stroke-linejoin:round"
       id="rect182"
       width="132.29167"
       height="132.29169"
       x="825.5"
       y="-48.683331" /><g
       id="g192"
       inkscape:label="zombie"
       transform="translate(791.10424,-31.220809)"><rect
         style="fill:#999999;stroke-width:0.251404;stroke-linejoin:round"
         id="rect183"
         width="66.145836"
         height="26.458332"
         x="0"
         y="37.175632"
         ry="13.229166"
         transform="translate(67.468747,15.68996)"
         inkscape:label="torso" /><g
         id="g185"
         inkscape:label="right_arm"><rect
           style="fill:#5fd35f;fill-opacity:1;stroke-width:0.264583;stroke-linejoin:round"
           id="rect184"
           width="12.391869"
           height="33.93811"
           x="46.458805"
           y="12.08664"
           ry="6.1959386"
           inkscape:transform-center-y="-16.694358"
           transform="rotate(-10.323432,120.57903,-365.59777)"
           inkscape:transform-center-x="3.0409331" /><rect
           style="fill:#2ca02c;fill-opacity:1;stroke-width:0.264583;stroke-linejoin:round"
           id="rect185"
           width="12.391877"
           height="27.128164"
           x="53.75396"
           y="28.5376"
           ry="6.1959386"
           transform="translate(67.468747,15.68996)" /></g><g
         id="g187"
         inkscape:label="left_arm"><rect
           style="fill:#5fd35f;fill-opacity:1;stroke-width:0.264583;stroke-linejoin:round"
           id="rect186"
           width="12.391869"
           height="33.93811"
           x="-18.402754"
           y="0.27189296"
           ry="6.1959386"
           inkscape:transform-center-y="-16.694358"
           transform="matrix(-0.98381184,-0.17920458,-0.17920458,0.98381184,67.468747,15.68996)"
           inkscape:transform-center-x="-3.0409342" /><rect
           style="fill:#2ca02c;fill-opacity:1;stroke-width:0.264583;stroke-linejoin:round"
           id="rect187"
           width="12.391877"
           height="27.128164"
           x="-12.391877"
           y="28.537603"
           ry="6.1959386"
           transform="matrix(-1,0,0,1,67.468747,15.68996)" /></g><g
         id="g191"
         inkscape:label="head"><path
           style="fill:#e6e6e6;fill-opacity:1;stroke-width:0.264583;stroke-linejoin:round"
           d="m 17.28794,36.865152 0.315762,-6.315231 2.447151,1.420926 v -4.973243 l 2.841853,2.05245 1.105165,-4.34172 2.13139,2.447152 1.105166,-4.025959 2.117786,2.859584 2.302873,-3.806868 1.417833,3.382983 2.213425,-3.461923 1.821494,3.96174 2.928925,-2.382933 0.842282,3.841547 2.538156,-1.868038 0.376862,3.855932 2.859693,-0.895771 -0.559929,3.292258 2.296617,-0.974868 0.262774,6.242463 z"
           id="path187"
           transform="translate(67.468747,15.68996)"
           inkscape:label="teeth" /><circle
           style="fill:#5fd35f;fill-opacity:1;stroke-width:0.446554;stroke-linejoin:round"
           id="circle187"
           cx="33.072918"
           cy="42.101685"
           r="16.536459"
           transform="translate(67.468747,15.68996)" /><path
           id="path188"
           style="fill:#ffccaa;stroke-width:0.446554;stroke-linejoin:round"
           d="m 49.609377,42.101685 c 0,9.132834 -7.403625,16.536459 -16.536459,16.536459 -9.132834,0 -16.536459,-7.403625 -16.536459,-16.536459 0,-9.132834 7.403625,-11.168514 16.536459,-11.168514 9.132834,0 16.536459,2.03568 16.536459,11.168514 z"
           sodipodi:nodetypes="sssss"
           transform="translate(67.468747,15.68996)" /><g
           id="g190"
           inkscape:label="eyes"><path
             id="path189"
             style="fill:#d45500;stroke-width:0.264583;stroke-linejoin:round"
             d="m 18.37328,34.632483 a 16.536459,16.536459 0 0 0 -7.60602,0.777546 3.9215791,2.7462177 0 0 0 -0.006,0.151693 3.9215791,2.7462177 0 0 0 3.921885,2.746174 3.9215791,2.7462177 0 0 0 3.921571,-2.746138 3.9215791,2.7462177 0 0 0 -0.231395,-0.929275 z"
             transform="rotate(-20.530681,77.051444,-178.42372)" /><path
             id="path190"
             style="fill:#d45500;stroke-width:0.264583;stroke-linejoin:round"
             d="m -43.802264,11.405983 a 3.9215791,2.7462177 0 0 1 0.277642,1.015019 3.9215791,2.7462177 0 0 1 -3.921571,2.746138 3.9215791,2.7462177 0 0 1 -3.921402,-2.745993 3.9215791,2.7462177 0 0 1 0.0056,-0.143044 16.536459,16.536459 0 0 1 7.559769,-0.87212 z"
             transform="matrix(-0.93648452,-0.35070891,-0.35070891,0.93648452,67.468747,15.68996)" /></g></g></g></g></svg>
